{
  "accessors": [
    {
      "bufferView": 2,
      "componentType": 5126,
      "count": 19428,
      "max": [
        0.8278018832206726,
        0.3437269628047943,
        5.517811298370361
      ],
      "min": [
        -0.8278020620346069,
        -0.9087896347045898,
        0.03087477758526802
      ],
      "type": "VEC3"
    },
    {
      "bufferView": 2,
      "byteOffset": 233136,
      "componentType": 5126,
      "count": 19428,
      "max": [
        0.9999692440032959,
        0.9999909996986389,
        0.9999954104423523
      ],
      "min": [
        -0.9999692440032959,
        -0.9999991655349731,
        -0.9999838471412659
      ],
      "type": "VEC3"
    },
    {
      "bufferView": 1,
      "componentType": 5126,
      "count": 19428,
      "max": [
        0.9972867965698242,
        0.9984469413757324
      ],
      "min": [
        0.007366962730884552,
        0.00018706917762756348
      ],
      "type": "VEC2"
    },
    {
      "bufferView": 0,
      "componentType": 5125,
      "count": 105792,
      "type": "SCALAR"
    },
    {
      "bufferView": 2,
      "byteOffset": 466272,
      "componentType": 5126,
      "count": 4651,
      "max": [
        0.3363994359970093,
        0.38508325815200806,
        6.439323425292969
      ],
      "min": [
        -0.3363994359970093,
        -0.30169838666915894,
        5.507073879241943
      ],
      "type": "VEC3"
    },
    {
      "bufferView": 2,
      "byteOffset": 522084,
      "componentType": 5126,
      "count": 4651,
      "max": [
        0.9997946619987488,
        0.9999820590019226,
        0.9998840689659119
      ],
      "min": [
        -0.9997946619987488,
        -0.9998032450675964,
        -0.999744713306427
      ],
      "type": "VEC3"
    },
    {
      "bufferView": 1,
      "byteOffset": 155424,
      "componentType": 5126,
      "count": 4651,
      "max": [
        0.9782074689865112,
        0.973341703414917
      ],
      "min": [
        0.03466349095106125,
        0.03156523406505585
      ],
      "type": "VEC2"
    },
    {
      "bufferView": 0,
      "byteOffset": 423168,
      "componentType": 5125,
      "count": 24972,
      "type": "SCALAR"
    },
    {
      "bufferView": 2,
      "byteOffset": 577896,
      "componentType": 5126,
      "count": 11868,
      "max": [
        0.43819350004196167,
        0.306003212928772,
        5.562265872955322
      ],
      "min": [
        -0.43819350004196167,
        -0.5713480114936829,
        0.0004652219358831644
      ],
      "type": "VEC3"
    },
    {
      "bufferView": 2,
      "byteOffset": 720312,
      "componentType": 5126,
      "count": 11868,
      "max": [
        0.9999913573265076,
        1.0,
        1.0
      ],
      "min": [
        -0.9999913573265076,
        -1.0,
        -1.0
      ],
      "type": "VEC3"
    },
    {
      "bufferView": 1,
      "byteOffset": 192632,
      "componentType": 5126,
      "count": 11868,
      "max": [
        0.9884396195411682,
        1.0
      ],
      "min": [
        0.00514829158782959,
        0.0
      ],
      "type": "VEC2"
    },
    {
      "bufferView": 0,
      "byteOffset": 523056,
      "componentType": 5125,
      "count": 65688,
      "type": "SCALAR"
    },
    {
      "bufferView": 2,
      "byteOffset": 862728,
      "componentType": 5126,
      "count": 12870,
      "max": [
        0.6123111248016357,
        0.5961225032806396,
        6.477557182312012
      ],
      "min": [
        -0.6123111248016357,
        -0.3376461863517761,
        5.364393711090088
      ],
      "type": "VEC3"
    },
    {
      "bufferView": 2,
      "byteOffset": 1017168,
      "componentType": 5126,
      "count": 12870,
      "max": [
        0.9999880790710449,
        0.9999292492866516,
        0.9999896883964539
      ],
      "min": [
        -0.9999880790710449,
        -0.9997684359550476,
        -0.9997233748435974
      ],
      "type": "VEC3"
    },
    {
      "bufferView": 1,
      "byteOffset": 287576,
      "componentType": 5126,
      "count": 12870,
      "max": [
        1.9957659244537354,
        1.0010923147201538
      ],
      "min": [
        0.003261011093854904,
        -0.004932805895805359
      ],
      "type": "VEC2"
    },
    {
      "bufferView": 0,
      "byteOffset": 785808,
      "componentType": 5125,
      "count": 64944,
      "type": "SCALAR"
    },
    {
      "bufferView": 2,
      "byteOffset": 1171608,
      "componentType": 5126,
      "count": 45467,
      "max": [
        0.830293595790863,
        0.5986192226409912,
        6.480048656463623
      ],
      "min": [
        -0.8302937746047974,
        -0.9104447960853577,
        -0.002034776844084263
      ],
      "type": "VEC3"
    },
    {
      "bufferView": 2,
      "byteOffset": 1717212,
      "componentType": 5126,
      "count": 45467,
      "max": [
        0.9999944567680359,
        1.0,
        1.0
      ],
      "min": [
        -0.9999943971633911,
        -1.0,
        -1.0
      ],
      "type": "VEC3"
    },
    {
      "bufferView": 1,
      "byteOffset": 390536,
      "componentType": 5126,
      "count": 45467,
      "max": [
        1.9957659244537354,
        1.0010923147201538
      ],
      "min": [
        0.003261011093854904,
        -0.004932805895805359
      ],
      "type": "VEC2"
    },
    {
      "bufferView": 0,
      "byteOffset": 1045584,
      "componentType": 5125,
      "count": 243696,
      "type": "SCALAR"
    }
  ],
  "asset": {
    "extras": {
      "author": "demidrew (https://sketchfab.com/demidrew)",
      "license": "CC-BY-4.0 (http://creativecommons.org/licenses/by/4.0/)",
      "source": "https://sketchfab.com/3d-models/anime-girl-3dc65ecd2fc04f16bea1ec3d7b4673f0",
      "title": "anime girl"
    },
    "generator": "Sketchfab-14.78.0",
    "version": "2.0"
  },
  "bufferViews": [
    {
      "buffer": 0,
      "byteLength": 2020368,
      "name": "floatBufferViews",
      "target": 34963
    },
    {
      "buffer": 0,
      "byteLength": 754272,
      "byteOffset": 2020368,
      "byteStride": 8,
      "name": "floatBufferViews",
      "target": 34962
    },
    {
      "buffer": 0,
      "byteLength": 2262816,
      "byteOffset": 2774640,
      "byteStride": 12,
      "name": "floatBufferViews",
      "target": 34962
    }
  ],
  "buffers": [
    {
      "byteLength": 5037456,
      "uri": "scene.bin"
    }
  ],
  "images": [
    {
      "uri": "textures/0_body_baseColor.png"
    },
    {
      "uri": "textures/0_face_baseColor.png"
    },
    {
      "uri": "textures/0_clothes_baseColor.png"
    },
    {
      "uri": "textures/0_hair_baseColor.png"
    }
  ],
  "materials": [
    {
      "doubleSided": true,
      "emissiveFactor": [
        0.4,
        0.4,
        0.4
      ],
      "emissiveTexture": {
        "index": 0
      },
      "name": "0_body",
      "pbrMetallicRoughness": {
        "baseColorTexture": {
          "index": 0
        },
        "metallicFactor": 0.0,
        "roughnessFactor": 0.5
      }
    },
    {
      "doubleSided": true,
      "emissiveFactor": [
        0.4,
        0.4,
        0.4
      ],
      "emissiveTexture": {
        "index": 1
      },
      "name": "0_face",
      "pbrMetallicRoughness": {
        "baseColorTexture": {
          "index": 1
        },
        "metallicFactor": 0.0,
        "roughnessFactor": 0.5
      }
    },
    {
      "doubleSided": true,
      "emissiveFactor": [
        0.4,
        0.4,
        0.4
      ],
      "emissiveTexture": {
        "index": 2
      },
      "name": "0_clothes",
      "pbrMetallicRoughness": {
        "baseColorTexture": {
          "index": 2
        },
        "metallicFactor": 0.0,
        "roughnessFactor": 0.5
      }
    },
    {
      "doubleSided": true,
      "emissiveFactor": [
        0.4,
        0.4,
        0.4
      ],
      "emissiveTexture": {
        "index": 3
      },
      "name": "0_hair",
      "pbrMetallicRoughness": {
        "baseColorTexture": {
          "index": 3
        },
        "metallicFactor": 0.0,
        "roughnessFactor": 0.5
      }
    },
    {
      "name": "1_Outline",
      "pbrMetallicRoughness": {
        "baseColorFactor": [
          0.0,
          0.0,
          0.0,
          1.0
        ],
        "metallicFactor": 0.0
      }
    }
  ],
  "meshes": [
    {
      "name": "ags_M_0_body_0",
      "primitives": [
        {
          "attributes": {
            "NORMAL": 1,
            "POSITION": 0,
            "TEXCOORD_0": 2
          },
          "indices": 3,
          "material": 0,
          "mode": 4
        }
      ]
    },
    {
      "name": "ags_M_0_face_0",
      "primitives": [
        {
          "attributes": {
            "NORMAL": 5,
            "POSITION": 4,
            "TEXCOORD_0": 6
          },
          "indices": 7,
          "material": 1,
          "mode": 4
        }
      ]
    },
    {
      "name": "ags_M_0_clothes_0",
      "primitives": [
        {
          "attributes": {
            "NORMAL": 9,
            "POSITION": 8,
            "TEXCOORD_0": 10
          },
          "indices": 11,
          "material": 2,
          "mode": 4
        }
      ]
    },
    {
      "name": "ags_M_0_hair_0",
      "primitives": [
        {
          "attributes": {
            "NORMAL": 13,
            "POSITION": 12,
            "TEXCOORD_0": 14
          },
          "indices": 15,
          "material": 3,
          "mode": 4
        }
      ]
    },
    {
      "name": "ags_M_1_Outline_0",
      "primitives": [
        {
          "attributes": {
            "NORMAL": 17,
            "POSITION": 16,
            "TEXCOORD_0": 18
          },
          "indices": 19,
          "material": 4,
          "mode": 4
        }
      ]
    }
  ],
  "nodes": [
    {
      "children": [
        1
      ],
      "matrix": [
        1.0,
        0.0,
        0.0,
        0.0,
        0.0,
        2.220446049250313e-16,
        -1.0,
        0.0,
        0.0,
        1.0,
        2.220446049250313e-16,
        0.0,
        0.0,
        0.0,
        0.0,
        1.0
      ],
      "name": "Sketchfab_model"
    },
    {
      "children": [
        2
      ],
      "matrix": [
        0.009999999776482582,
        0.0,
        0.0,
        0.0,
        0.0,
        0.0,
        0.009999999776482582,
        0.0,
        0.0,
        -0.009999999776482582,
        0.0,
        0.0,
        0.0,
        0.0,
        0.0,
        1.0
      ],
      "name": "5d10da0c57594d29be49096275574a9d.fbx"
    },
    {
      "children": [
        3
      ],
      "name": "RootNode"
    },
    {
      "children": [
        4,
        5,
        6,
        7,
        8
      ],
      "matrix": [
        100.0,
        0.0,
        0.0,
        0.0,
        0.0,
        -1.629206793918314e-05,
        -99.99999999999868,
        0.0,
        0.0,
        99.99999999999868,
        -1.629206793918314e-05,
        0.0,
        0.0,
        0.0,
        0.0,
        1.0
      ],
      "name": "ags_M"
    },
    {
      "mesh": 0,
      "name": "ags_M_0_body_0"
    },
    {
      "mesh": 1,
      "name": "ags_M_0_face_0"
    },
    {
      "mesh": 2,
      "name": "ags_M_0_clothes_0"
    },
    {
      "mesh": 3,
      "name": "ags_M_0_hair_0"
    },
    {
      "mesh": 4,
      "name": "ags_M_1_Outline_0"
    }
  ],
  "samplers": [
    {
      "magFilter": 9729,
      "minFilter": 9987,
      "wrapS": 10497,
      "wrapT": 10497
    }
  ],
  "scene": 0,
  "scenes": [
    {
      "name": "Sketchfab_Scene",
      "nodes": [
        0
      ]
    }
  ],
  "textures": [
    {
      "sampler": 0,
      "source": 0
    },
    {
      "sampler": 0,
      "source": 1
    },
    {
      "sampler": 0,
      "source": 2
    },
    {
      "sampler": 0,
      "source": 3
    }
  ]
}
